<svg xmlns="http://www.w3.org/2000/svg" version="1.1" xmlns:xlink="http://www.w3.org/1999/xlink" xmlns:svgjs="http://svgjs.com/svgjs" width="96" height="96"><svg width="96" height="96" viewBox="0 0 96 96" fill="none" xmlns="http://www.w3.org/2000/svg">
<g clip-path="url(#clip0_11_4)">
<circle cx="48" cy="48" r="48" fill="#FB923C"></circle>
<path d="M41.2891 43.0664C41.6797 42.2852 42.2656 41.6341 43.0469 41.1133C43.8932 40.5273 44.7721 40.2344 45.6836 40.2344C46.9206 40.2344 47.9622 40.6576 48.8086 41.5039C49.7201 42.2852 50.5339 43.3594 51.25 44.7266C51.9661 46.0286 52.6497 47.4935 53.3008 49.1211C53.9518 50.6836 54.668 52.2461 55.4492 53.8086C56.3607 55.6966 57.2721 57.5521 58.1836 59.375C59.1602 61.1979 60.1042 62.793 61.0156 64.1602C61.4062 59.082 62.0247 53.3529 62.8711 46.9727C63.7826 40.5273 64.5964 33.7565 65.3125 26.6602C65.3125 25.5534 65.638 24.7721 66.2891 24.3164C66.9401 23.8607 67.6237 23.6328 68.3398 23.6328C69.056 23.763 69.707 24.1536 70.293 24.8047C70.8789 25.3906 71.1719 26.2695 71.1719 27.4414C70.9766 31.0221 70.6836 34.7982 70.293 38.7695C69.9023 42.6758 69.4466 46.6471 68.9258 50.6836C68.4701 54.6549 67.9492 58.5938 67.3633 62.5C66.7773 66.4062 66.224 70.0846 65.7031 73.5352C65.5729 74.4466 65.2148 75.1302 64.6289 75.5859C64.1081 76.1068 63.5221 76.3672 62.8711 76.3672C62.2852 76.3672 61.7318 76.1719 61.2109 75.7812C60.6901 75.4557 60.2995 74.8372 60.0391 73.9258C59.9089 73.7956 59.5833 73.3073 59.0625 72.4609C58.5417 71.5495 57.8581 70.4102 57.0117 69.043C56.2305 67.6107 55.3516 66.0156 54.375 64.2578C53.4635 62.5 52.5521 60.7422 51.6406 58.9844C50.7292 57.1615 49.8503 55.4362 49.0039 53.8086C48.1576 52.1159 47.474 50.6185 46.9531 49.3164C46.8229 49.056 46.6602 48.7956 46.4648 48.5352C46.2695 48.2747 46.0417 48.1445 45.7812 48.1445C45.5208 48.1445 44.9349 48.9909 44.0234 50.6836C43.1771 52.3112 42.168 54.362 40.9961 56.8359C39.8242 59.2448 38.5547 61.8164 37.1875 64.5508C35.8854 67.2201 34.6484 69.6289 33.4766 71.7773C33.0208 72.5586 32.4674 73.0794 31.8164 73.3398C31.2305 73.6003 30.5794 73.7305 29.8633 73.7305C28.2357 73.7305 27.2266 72.819 26.8359 70.9961C26.3802 68.6523 25.9245 65.9831 25.4688 62.9883C25.0781 59.9284 24.7201 56.7708 24.3945 53.5156C24.069 50.2604 23.8086 47.0052 23.6133 43.75C23.418 40.4297 23.3203 37.3372 23.3203 34.4727C23.3203 33.2357 23.3203 32.0638 23.3203 30.957C23.3203 29.7852 23.418 28.8086 23.6133 28.0273C23.8086 27.181 24.1341 26.5299 24.5898 26.0742C25.1107 25.5534 25.8594 25.293 26.8359 25.293C27.6823 25.293 28.3659 25.651 28.8867 26.3672C29.4727 27.0182 29.7656 27.8971 29.7656 29.0039C29.7656 29.7852 29.7331 30.599 29.668 31.4453C29.6029 32.2266 29.5703 33.0729 29.5703 33.9844C29.5703 36.263 29.6354 38.6393 29.7656 41.1133C29.8958 43.5872 30.0586 46.0938 30.2539 48.6328C30.5143 51.1068 30.8073 53.5482 31.1328 55.957C31.4583 58.3008 31.7839 60.4492 32.1094 62.4023C32.8906 60.9701 33.7044 59.375 34.5508 57.6172C35.3971 55.8594 36.2109 54.1016 36.9922 52.3438C37.7734 50.5859 38.5221 48.8932 39.2383 47.2656C40.0195 45.638 40.7031 44.2383 41.2891 43.0664Z" fill="#5509A0"></path>
</g>
<defs>
<clipPath id="SvgjsClipPath1000">
<rect width="96" height="96" fill="white"></rect>
</clipPath>
</defs>
</svg><style>@media (prefers-color-scheme: light) { :root { filter: none; } }
</style></svg>